<svg xmlns="http://www.w3.org/2000/svg" viewBox="0 0 2200 2200">
<polyline points="80 0 80 180 8.35384e-06 180 8.52651e-14 3.71282e-06 80 0" style="fill:#BFE1F3;stroke:#179AA9;stroke-width:0.25" />
<polyline points="64 7.42563e-07 80 16" style="stroke:#F25844;stroke-width:0.75" />
<polyline points="160 0 160 180 80 180 80 3.71282e-06 160 0" style="fill:#BFE1F3;stroke:#179AA9;stroke-width:0.25" />
<polyline points="144 7.42563e-07 160 16" style="stroke:#F25844;stroke-width:0.75" />
<polyline points="170 0 170 180 160 180 160 4.64102e-07 170 0" style="fill:#BFE1F3;stroke:#179AA9;stroke-width:0.25" />
<polyline points="168 9.28203e-08 170 2" style="stroke:#F25844;stroke-width:0.75" />
<polyline points="172 0 172 180 170 180 170 9.28203e-08 172 0" style="fill:#BFE1F3;stroke:#179AA9;stroke-width:0.25" />
<polyline points="171.6 1.85642e-08 172 0.4" style="stroke:#F25844;stroke-width:0.75" />
<polyline points="173 0 173 180 172 180 172 4.64102e-08 173 0" style="fill:#BFE1F3;stroke:#179AA9;stroke-width:0.25" />
<polyline points="172.8 9.28185e-09 173 0.2" style="stroke:#F25844;stroke-width:0.75" />
<polyline points="253 0 253 180 173 180 173 3.71282e-06 253 0" style="fill:#FAAD35;stroke:#F25844;stroke-width:0.5" />
<polyline points="237 7.42563e-07 253 16" style="stroke:#F25844;stroke-width:0.75" />
<text text-anchor="middle" x="213" y="90" class="small">IOPadInOut</text>
<text text-anchor="middle" x="213" y="110" class="small">GPIO[0]</text>
<polyline points="333 0 333 180 253 180 253 3.71282e-06 333 0" style="fill:#BFE1F3;stroke:#179AA9;stroke-width:0.25" />
<polyline points="317 7.42563e-07 333 16" style="stroke:#F25844;stroke-width:0.75" />
<polyline points="413 0 413 180 333 180 333 3.71282e-06 413 0" style="fill:#BFE1F3;stroke:#179AA9;stroke-width:0.25" />
<polyline points="397 7.42563e-07 413 16" style="stroke:#F25844;stroke-width:0.75" />
<polyline points="423 0 423 180 413 180 413 4.64102e-07 423 0" style="fill:#BFE1F3;stroke:#179AA9;stroke-width:0.25" />
<polyline points="421 9.28203e-08 423 2" style="stroke:#F25844;stroke-width:0.75" />
<polyline points="425 0 425 180 423 180 423 9.28203e-08 425 0" style="fill:#BFE1F3;stroke:#179AA9;stroke-width:0.25" />
<polyline points="424.6 1.85642e-08 425 0.4" style="stroke:#F25844;stroke-width:0.75" />
<polyline points="426 0 426 180 425 180 425 4.64102e-08 426 0" style="fill:#BFE1F3;stroke:#179AA9;stroke-width:0.25" />
<polyline points="425.8 9.28185e-09 426 0.2" style="stroke:#F25844;stroke-width:0.75" />
<polyline points="506 0 506 180 426 180 426 3.71282e-06 506 0" style="fill:#FAAD35;stroke:#F25844;stroke-width:0.5" />
<polyline points="490 7.42563e-07 506 16" style="stroke:#F25844;stroke-width:0.75" />
<text text-anchor="middle" x="466" y="90" class="small">IOPadInOut</text>
<text text-anchor="middle" x="466" y="110" class="small">GPIO[1]</text>
<polyline points="586 0 586 180 506 180 506 3.71282e-06 586 0" style="fill:#BFE1F3;stroke:#179AA9;stroke-width:0.25" />
<polyline points="570 7.42563e-07 586 16" style="stroke:#F25844;stroke-width:0.75" />
<polyline points="666 0 666 180 586 180 586 3.71282e-06 666 0" style="fill:#BFE1F3;stroke:#179AA9;stroke-width:0.25" />
<polyline points="650 7.42563e-07 666 16" style="stroke:#F25844;stroke-width:0.75" />
<polyline points="676 0 676 180 666 180 666 4.64102e-07 676 0" style="fill:#BFE1F3;stroke:#179AA9;stroke-width:0.25" />
<polyline points="674 9.28203e-08 676 2" style="stroke:#F25844;stroke-width:0.75" />
<polyline points="678 0 678 180 676 180 676 9.28203e-08 678 0" style="fill:#BFE1F3;stroke:#179AA9;stroke-width:0.25" />
<polyline points="677.6 1.85642e-08 678 0.4" style="stroke:#F25844;stroke-width:0.75" />
<polyline points="680 0 680 180 678 180 678 9.28203e-08 680 0" style="fill:#BFE1F3;stroke:#179AA9;stroke-width:0.25" />
<polyline points="679.6 1.85642e-08 680 0.4" style="stroke:#F25844;stroke-width:0.75" />
<polyline points="760 0 760 180 680 180 680 3.71282e-06 760 0" style="fill:#FAAD35;stroke:#F25844;stroke-width:0.5" />
<polyline points="744 7.42563e-07 760 16" style="stroke:#F25844;stroke-width:0.75" />
<text text-anchor="middle" x="720" y="90" class="small">IOPadInOut</text>
<text text-anchor="middle" x="720" y="110" class="small">GPIO[2]</text>
<polyline points="840 0 840 180 760 180 760 3.71282e-06 840 0" style="fill:#BFE1F3;stroke:#179AA9;stroke-width:0.25" />
<polyline points="824 7.42563e-07 840 16" style="stroke:#F25844;stroke-width:0.75" />
<polyline points="920 0 920 180 840 180 840 3.71282e-06 920 0" style="fill:#BFE1F3;stroke:#179AA9;stroke-width:0.25" />
<polyline points="904 7.42563e-07 920 16" style="stroke:#F25844;stroke-width:0.75" />
<polyline points="930 0 930 180 920 180 920 4.64102e-07 930 0" style="fill:#BFE1F3;stroke:#179AA9;stroke-width:0.25" />
<polyline points="928 9.28203e-08 930 2" style="stroke:#F25844;stroke-width:0.75" />
<polyline points="932 0 932 180 930 180 930 9.28203e-08 932 0" style="fill:#BFE1F3;stroke:#179AA9;stroke-width:0.25" />
<polyline points="931.6 1.85642e-08 932 0.4" style="stroke:#F25844;stroke-width:0.75" />
<polyline points="933 0 933 180 932 180 932 4.64102e-08 933 0" style="fill:#BFE1F3;stroke:#179AA9;stroke-width:0.25" />
<polyline points="932.8 9.28185e-09 933 0.2" style="stroke:#F25844;stroke-width:0.75" />
<polyline points="1013 0 1013 180 933 180 933 3.71282e-06 1013 0" style="fill:#FAAD35;stroke:#F25844;stroke-width:0.5" />
<polyline points="997 7.42563e-07 1013 16" style="stroke:#F25844;stroke-width:0.75" />
<text text-anchor="middle" x="973" y="90" class="small">IOPadInOut</text>
<text text-anchor="middle" x="973" y="110" class="small">GPIO[3]</text>
<polyline points="1093 0 1093 180 1013 180 1013 3.71282e-06 1093 0" style="fill:#BFE1F3;stroke:#179AA9;stroke-width:0.25" />
<polyline points="1077 7.42563e-07 1093 16" style="stroke:#F25844;stroke-width:0.75" />
<polyline points="1173 0 1173 180 1093 180 1093 3.71282e-06 1173 0" style="fill:#BFE1F3;stroke:#179AA9;stroke-width:0.25" />
<polyline points="1157 7.42563e-07 1173 16" style="stroke:#F25844;stroke-width:0.75" />
<polyline points="1183 0 1183 180 1173 180 1173 4.64102e-07 1183 0" style="fill:#BFE1F3;stroke:#179AA9;stroke-width:0.25" />
<polyline points="1181 9.28203e-08 1183 2" style="stroke:#F25844;stroke-width:0.75" />
<polyline points="1185 0 1185 180 1183 180 1183 9.28203e-08 1185 0" style="fill:#BFE1F3;stroke:#179AA9;stroke-width:0.25" />
<polyline points="1184.6 1.85642e-08 1185 0.4" style="stroke:#F25844;stroke-width:0.75" />
<polyline points="1186 0 1186 180 1185 180 1185 4.64102e-08 1186 0" style="fill:#BFE1F3;stroke:#179AA9;stroke-width:0.25" />
<polyline points="1185.8 9.28185e-09 1186 0.2" style="stroke:#F25844;stroke-width:0.75" />
<polyline points="1266 0 1266 180 1186 180 1186 3.71282e-06 1266 0" style="fill:#FAAD35;stroke:#F25844;stroke-width:0.5" />
<polyline points="1202 2.97025e-06 1186 16" style="stroke:#F25844;stroke-width:0.75" />
<text text-anchor="middle" x="1226" y="90" class="small">IOPadInOut</text>
<text text-anchor="middle" x="1226" y="110" class="small">GPIO[4]</text>
<polyline points="1346 0 1346 180 1266 180 1266 3.71282e-06 1346 0" style="fill:#BFE1F3;stroke:#179AA9;stroke-width:0.25" />
<polyline points="1330 7.42563e-07 1346 16" style="stroke:#F25844;stroke-width:0.75" />
<polyline points="1426 0 1426 180 1346 180 1346 3.71282e-06 1426 0" style="fill:#BFE1F3;stroke:#179AA9;stroke-width:0.25" />
<polyline points="1410 7.42563e-07 1426 16" style="stroke:#F25844;stroke-width:0.75" />
<polyline points="1436 0 1436 180 1426 180 1426 4.64102e-07 1436 0" style="fill:#BFE1F3;stroke:#179AA9;stroke-width:0.25" />
<polyline points="1434 9.28203e-08 1436 2" style="stroke:#F25844;stroke-width:0.75" />
<polyline points="1438 0 1438 180 1436 180 1436 9.28203e-08 1438 0" style="fill:#BFE1F3;stroke:#179AA9;stroke-width:0.25" />
<polyline points="1437.6 1.85642e-08 1438 0.4" style="stroke:#F25844;stroke-width:0.75" />
<polyline points="1440 0 1440 180 1438 180 1438 9.28203e-08 1440 0" style="fill:#BFE1F3;stroke:#179AA9;stroke-width:0.25" />
<polyline points="1439.6 1.85642e-08 1440 0.4" style="stroke:#F25844;stroke-width:0.75" />
<polyline points="1520 0 1520 180 1440 180 1440 3.71282e-06 1520 0" style="fill:#FAAD35;stroke:#F25844;stroke-width:0.5" />
<polyline points="1456 2.97025e-06 1440 16" style="stroke:#F25844;stroke-width:0.75" />
<text text-anchor="middle" x="1480" y="90" class="small">IOPadInOut</text>
<text text-anchor="middle" x="1480" y="110" class="small">GPIO[5]</text>
<polyline points="1600 0 1600 180 1520 180 1520 3.71282e-06 1600 0" style="fill:#BFE1F3;stroke:#179AA9;stroke-width:0.25" />
<polyline points="1584 7.42563e-07 1600 16" style="stroke:#F25844;stroke-width:0.75" />
<polyline points="1680 0 1680 180 1600 180 1600 3.71282e-06 1680 0" style="fill:#BFE1F3;stroke:#179AA9;stroke-width:0.25" />
<polyline points="1664 7.42563e-07 1680 16" style="stroke:#F25844;stroke-width:0.75" />
<polyline points="1690 0 1690 180 1680 180 1680 4.64102e-07 1690 0" style="fill:#BFE1F3;stroke:#179AA9;stroke-width:0.25" />
<polyline points="1688 9.28203e-08 1690 2" style="stroke:#F25844;stroke-width:0.75" />
<polyline points="1692 0 1692 180 1690 180 1690 9.28203e-08 1692 0" style="fill:#BFE1F3;stroke:#179AA9;stroke-width:0.25" />
<polyline points="1691.6 1.85642e-08 1692 0.4" style="stroke:#F25844;stroke-width:0.75" />
<polyline points="1693 0 1693 180 1692 180 1692 4.64102e-08 1693 0" style="fill:#BFE1F3;stroke:#179AA9;stroke-width:0.25" />
<polyline points="1692.8 9.28185e-09 1693 0.2" style="stroke:#F25844;stroke-width:0.75" />
<polyline points="1773 0 1773 180 1693 180 1693 3.71282e-06 1773 0" style="fill:#FAAD35;stroke:#F25844;stroke-width:0.5" />
<polyline points="1709 2.97025e-06 1693 16" style="stroke:#F25844;stroke-width:0.75" />
<text text-anchor="middle" x="1733" y="90" class="small">IOPadInOut</text>
<text text-anchor="middle" x="1733" y="110" class="small">GPIO[6]</text>
<polyline points="1853 0 1853 180 1773 180 1773 3.71282e-06 1853 0" style="fill:#BFE1F3;stroke:#179AA9;stroke-width:0.25" />
<polyline points="1837 7.42563e-07 1853 16" style="stroke:#F25844;stroke-width:0.75" />
<polyline points="1933 0 1933 180 1853 180 1853 3.71282e-06 1933 0" style="fill:#BFE1F3;stroke:#179AA9;stroke-width:0.25" />
<polyline points="1917 7.42563e-07 1933 16" style="stroke:#F25844;stroke-width:0.75" />
<polyline points="1943 0 1943 180 1933 180 1933 4.64102e-07 1943 0" style="fill:#BFE1F3;stroke:#179AA9;stroke-width:0.25" />
<polyline points="1941 9.28203e-08 1943 2" style="stroke:#F25844;stroke-width:0.75" />
<polyline points="1945 0 1945 180 1943 180 1943 9.28203e-08 1945 0" style="fill:#BFE1F3;stroke:#179AA9;stroke-width:0.25" />
<polyline points="1944.6 1.85642e-08 1945 0.4" style="stroke:#F25844;stroke-width:0.75" />
<polyline points="1946 0 1946 180 1945 180 1945 4.64102e-08 1946 0" style="fill:#BFE1F3;stroke:#179AA9;stroke-width:0.25" />
<polyline points="1945.8 9.28185e-09 1946 0.2" style="stroke:#F25844;stroke-width:0.75" />
<polyline points="2026 0 2026 180 1946 180 1946 3.71282e-06 2026 0" style="fill:#FAAD35;stroke:#F25844;stroke-width:0.5" />
<polyline points="1962 2.97025e-06 1946 16" style="stroke:#F25844;stroke-width:0.75" />
<text text-anchor="middle" x="1986" y="90" class="small">IOPadInOut</text>
<text text-anchor="middle" x="1986" y="110" class="small">GPIO[7]</text>
<polyline points="2106 0 2106 180 2026 180 2026 3.71282e-06 2106 0" style="fill:#BFE1F3;stroke:#179AA9;stroke-width:0.25" />
<polyline points="2090 7.42563e-07 2106 16" style="stroke:#F25844;stroke-width:0.75" />
<polyline points="2186 0 2186 180 2106 180 2106 3.71282e-06 2186 0" style="fill:#BFE1F3;stroke:#179AA9;stroke-width:0.25" />
<polyline points="2170 7.42563e-07 2186 16" style="stroke:#F25844;stroke-width:0.75" />
<polyline points="2196 0 2196 180 2186 180 2186 4.64102e-07 2196 0" style="fill:#BFE1F3;stroke:#179AA9;stroke-width:0.25" />
<polyline points="2194 9.28203e-08 2196 2" style="stroke:#F25844;stroke-width:0.75" />
<polyline points="2198 0 2198 180 2196 180 2196 9.28203e-08 2198 0" style="fill:#BFE1F3;stroke:#179AA9;stroke-width:0.25" />
<polyline points="2197.6 1.85642e-08 2198 0.4" style="stroke:#F25844;stroke-width:0.75" />
<polyline points="2200 0 2200 180 2198 180 2198 9.28203e-08 2200 0" style="fill:#BFE1F3;stroke:#179AA9;stroke-width:0.25" />
<polyline points="2199.6 1.85642e-08 2200 0.4" style="stroke:#F25844;stroke-width:0.75" />
<polyline points="0 2200 0 2020 80 2020 80 2200 0 2200" style="fill:#BFE1F3;stroke:#179AA9;stroke-width:0.25" />
<polyline points="16 2200 0 2184" style="stroke:#F25844;stroke-width:0.75" />
<polyline points="80 2200 80 2020 160 2020 160 2200 80 2200" style="fill:#BFE1F3;stroke:#179AA9;stroke-width:0.25" />
<polyline points="96 2200 80 2184" style="stroke:#F25844;stroke-width:0.75" />
<polyline points="160 2200 160 2020 170 2020 170 2200 160 2200" style="fill:#BFE1F3;stroke:#179AA9;stroke-width:0.25" />
<polyline points="162 2200 160 2198" style="stroke:#F25844;stroke-width:0.75" />
<polyline points="170 2200 170 2020 172 2020 172 2200 170 2200" style="fill:#BFE1F3;stroke:#179AA9;stroke-width:0.25" />
<polyline points="170.4 2200 170 2199.6" style="stroke:#F25844;stroke-width:0.75" />
<polyline points="172 2200 172 2020 173 2020 173 2200 172 2200" style="fill:#BFE1F3;stroke:#179AA9;stroke-width:0.25" />
<polyline points="172.2 2200 172 2199.8" style="stroke:#F25844;stroke-width:0.75" />
<polyline points="173 2200 173 2020 253 2020 253 2200 173 2200" style="fill:#FAAD35;stroke:#F25844;stroke-width:0.5" />
<polyline points="189 2200 173 2184" style="stroke:#F25844;stroke-width:0.75" />
<text text-anchor="middle" x="213" y="2110" class="small">IOPadInOut</text>
<text text-anchor="middle" x="213" y="2130" class="small">CLK</text>
<polyline points="253 2200 253 2020 333 2020 333 2200 253 2200" style="fill:#BFE1F3;stroke:#179AA9;stroke-width:0.25" />
<polyline points="269 2200 253 2184" style="stroke:#F25844;stroke-width:0.75" />
<polyline points="333 2200 333 2020 413 2020 413 2200 333 2200" style="fill:#BFE1F3;stroke:#179AA9;stroke-width:0.25" />
<polyline points="349 2200 333 2184" style="stroke:#F25844;stroke-width:0.75" />
<polyline points="413 2200 413 2020 423 2020 423 2200 413 2200" style="fill:#BFE1F3;stroke:#179AA9;stroke-width:0.25" />
<polyline points="415 2200 413 2198" style="stroke:#F25844;stroke-width:0.75" />
<polyline points="423 2200 423 2020 425 2020 425 2200 423 2200" style="fill:#BFE1F3;stroke:#179AA9;stroke-width:0.25" />
<polyline points="423.4 2200 423 2199.6" style="stroke:#F25844;stroke-width:0.75" />
<polyline points="425 2200 425 2020 426 2020 426 2200 425 2200" style="fill:#BFE1F3;stroke:#179AA9;stroke-width:0.25" />
<polyline points="425.2 2200 425 2199.8" style="stroke:#F25844;stroke-width:0.75" />
<polyline points="426 2200 426 2020 506 2020 506 2200 426 2200" style="fill:#FAAD35;stroke:#F25844;stroke-width:0.5" />
<polyline points="442 2200 426 2184" style="stroke:#F25844;stroke-width:0.75" />
<text text-anchor="middle" x="466" y="2110" class="small">IOPadInOut</text>
<text text-anchor="middle" x="466" y="2130" class="small">RESET</text>
<polyline points="506 2200 506 2020 586 2020 586 2200 506 2200" style="fill:#BFE1F3;stroke:#179AA9;stroke-width:0.25" />
<polyline points="522 2200 506 2184" style="stroke:#F25844;stroke-width:0.75" />
<polyline points="586 2200 586 2020 666 2020 666 2200 586 2200" style="fill:#BFE1F3;stroke:#179AA9;stroke-width:0.25" />
<polyline points="602 2200 586 2184" style="stroke:#F25844;stroke-width:0.75" />
<polyline points="666 2200 666 2020 676 2020 676 2200 666 2200" style="fill:#BFE1F3;stroke:#179AA9;stroke-width:0.25" />
<polyline points="668 2200 666 2198" style="stroke:#F25844;stroke-width:0.75" />
<polyline points="676 2200 676 2020 678 2020 678 2200 676 2200" style="fill:#BFE1F3;stroke:#179AA9;stroke-width:0.25" />
<polyline points="676.4 2200 676 2199.6" style="stroke:#F25844;stroke-width:0.75" />
<polyline points="678 2200 678 2020 680 2020 680 2200 678 2200" style="fill:#BFE1F3;stroke:#179AA9;stroke-width:0.25" />
<polyline points="678.4 2200 678 2199.6" style="stroke:#F25844;stroke-width:0.75" />
<polyline points="680 2200 680 2020 760 2020 760 2200 680 2200" style="fill:#FAAD35;stroke:#F25844;stroke-width:0.5" />
<polyline points="696 2200 680 2184" style="stroke:#F25844;stroke-width:0.75" />
<text text-anchor="middle" x="720" y="2110" class="small">IOPadInOut</text>
<text text-anchor="middle" x="720" y="2130" class="small">MISO</text>
<polyline points="760 2200 760 2020 840 2020 840 2200 760 2200" style="fill:#BFE1F3;stroke:#179AA9;stroke-width:0.25" />
<polyline points="776 2200 760 2184" style="stroke:#F25844;stroke-width:0.75" />
<polyline points="840 2200 840 2020 920 2020 920 2200 840 2200" style="fill:#BFE1F3;stroke:#179AA9;stroke-width:0.25" />
<polyline points="856 2200 840 2184" style="stroke:#F25844;stroke-width:0.75" />
<polyline points="920 2200 920 2020 930 2020 930 2200 920 2200" style="fill:#BFE1F3;stroke:#179AA9;stroke-width:0.25" />
<polyline points="922 2200 920 2198" style="stroke:#F25844;stroke-width:0.75" />
<polyline points="930 2200 930 2020 932 2020 932 2200 930 2200" style="fill:#BFE1F3;stroke:#179AA9;stroke-width:0.25" />
<polyline points="930.4 2200 930 2199.6" style="stroke:#F25844;stroke-width:0.75" />
<polyline points="932 2200 932 2020 933 2020 933 2200 932 2200" style="fill:#BFE1F3;stroke:#179AA9;stroke-width:0.25" />
<polyline points="932.2 2200 932 2199.8" style="stroke:#F25844;stroke-width:0.75" />
<polyline points="933 2200 933 2020 1013 2020 1013 2200 933 2200" style="fill:#FAAD35;stroke:#F25844;stroke-width:0.5" />
<polyline points="949 2200 933 2184" style="stroke:#F25844;stroke-width:0.75" />
<text text-anchor="middle" x="973" y="2110" class="small">IOPadInOut</text>
<text text-anchor="middle" x="973" y="2130" class="small">MOSI</text>
<polyline points="1013 2200 1013 2020 1093 2020 1093 2200 1013 2200" style="fill:#BFE1F3;stroke:#179AA9;stroke-width:0.25" />
<polyline points="1029 2200 1013 2184" style="stroke:#F25844;stroke-width:0.75" />
<polyline points="1093 2200 1093 2020 1173 2020 1173 2200 1093 2200" style="fill:#BFE1F3;stroke:#179AA9;stroke-width:0.25" />
<polyline points="1109 2200 1093 2184" style="stroke:#F25844;stroke-width:0.75" />
<polyline points="1173 2200 1173 2020 1183 2020 1183 2200 1173 2200" style="fill:#BFE1F3;stroke:#179AA9;stroke-width:0.25" />
<polyline points="1175 2200 1173 2198" style="stroke:#F25844;stroke-width:0.75" />
<polyline points="1183 2200 1183 2020 1185 2020 1185 2200 1183 2200" style="fill:#BFE1F3;stroke:#179AA9;stroke-width:0.25" />
<polyline points="1183.4 2200 1183 2199.6" style="stroke:#F25844;stroke-width:0.75" />
<polyline points="1185 2200 1185 2020 1186 2020 1186 2200 1185 2200" style="fill:#BFE1F3;stroke:#179AA9;stroke-width:0.25" />
<polyline points="1185.2 2200 1185 2199.8" style="stroke:#F25844;stroke-width:0.75" />
<polyline points="1186 2200 1186 2020 1266 2020 1266 2200 1186 2200" style="fill:#FAAD35;stroke:#F25844;stroke-width:0.5" />
<polyline points="1202 2200 1186 2184" style="stroke:#F25844;stroke-width:0.75" />
<text text-anchor="middle" x="1226" y="2110" class="small">IOPadInOut</text>
<text text-anchor="middle" x="1226" y="2130" class="small">SCK</text>
<polyline points="1266 2200 1266 2020 1346 2020 1346 2200 1266 2200" style="fill:#BFE1F3;stroke:#179AA9;stroke-width:0.25" />
<polyline points="1282 2200 1266 2184" style="stroke:#F25844;stroke-width:0.75" />
<polyline points="1346 2200 1346 2020 1426 2020 1426 2200 1346 2200" style="fill:#BFE1F3;stroke:#179AA9;stroke-width:0.25" />
<polyline points="1362 2200 1346 2184" style="stroke:#F25844;stroke-width:0.75" />
<polyline points="1426 2200 1426 2020 1436 2020 1436 2200 1426 2200" style="fill:#BFE1F3;stroke:#179AA9;stroke-width:0.25" />
<polyline points="1428 2200 1426 2198" style="stroke:#F25844;stroke-width:0.75" />
<polyline points="1436 2200 1436 2020 1438 2020 1438 2200 1436 2200" style="fill:#BFE1F3;stroke:#179AA9;stroke-width:0.25" />
<polyline points="1436.4 2200 1436 2199.6" style="stroke:#F25844;stroke-width:0.75" />
<polyline points="1438 2200 1438 2020 1440 2020 1440 2200 1438 2200" style="fill:#BFE1F3;stroke:#179AA9;stroke-width:0.25" />
<polyline points="1438.4 2200 1438 2199.6" style="stroke:#F25844;stroke-width:0.75" />
<polyline points="1440 2200 1440 2020 1520 2020 1520 2200 1440 2200" style="fill:#FAAD35;stroke:#F25844;stroke-width:0.5" />
<polyline points="1456 2200 1440 2184" style="stroke:#F25844;stroke-width:0.75" />
<text text-anchor="middle" x="1480" y="2110" class="small">IOPadInOut</text>
<text text-anchor="middle" x="1480" y="2130" class="small">SPI_CS_N</text>
<polyline points="1520 2200 1520 2020 1600 2020 1600 2200 1520 2200" style="fill:#BFE1F3;stroke:#179AA9;stroke-width:0.25" />
<polyline points="1536 2200 1520 2184" style="stroke:#F25844;stroke-width:0.75" />
<polyline points="1600 2200 1600 2020 1680 2020 1680 2200 1600 2200" style="fill:#BFE1F3;stroke:#179AA9;stroke-width:0.25" />
<polyline points="1616 2200 1600 2184" style="stroke:#F25844;stroke-width:0.75" />
<polyline points="1680 2200 1680 2020 1690 2020 1690 2200 1680 2200" style="fill:#BFE1F3;stroke:#179AA9;stroke-width:0.25" />
<polyline points="1682 2200 1680 2198" style="stroke:#F25844;stroke-width:0.75" />
<polyline points="1690 2200 1690 2020 1692 2020 1692 2200 1690 2200" style="fill:#BFE1F3;stroke:#179AA9;stroke-width:0.25" />
<polyline points="1690.4 2200 1690 2199.6" style="stroke:#F25844;stroke-width:0.75" />
<polyline points="1692 2200 1692 2020 1693 2020 1693 2200 1692 2200" style="fill:#BFE1F3;stroke:#179AA9;stroke-width:0.25" />
<polyline points="1692.2 2200 1692 2199.8" style="stroke:#F25844;stroke-width:0.75" />
<polyline points="1693 2200 1693 2020 1773 2020 1773 2200 1693 2200" style="fill:#FAAD35;stroke:#F25844;stroke-width:0.5" />
<polyline points="1757 2200 1773 2184" style="stroke:#F25844;stroke-width:0.75" />
<text text-anchor="middle" x="1733" y="2110" class="small">IOPadInOut</text>
<text text-anchor="middle" x="1733" y="2130" class="small">UART_TX</text>
<polyline points="1773 2200 1773 2020 1853 2020 1853 2200 1773 2200" style="fill:#BFE1F3;stroke:#179AA9;stroke-width:0.25" />
<polyline points="1789 2200 1773 2184" style="stroke:#F25844;stroke-width:0.75" />
<polyline points="1853 2200 1853 2020 1933 2020 1933 2200 1853 2200" style="fill:#BFE1F3;stroke:#179AA9;stroke-width:0.25" />
<polyline points="1869 2200 1853 2184" style="stroke:#F25844;stroke-width:0.75" />
<polyline points="1933 2200 1933 2020 1943 2020 1943 2200 1933 2200" style="fill:#BFE1F3;stroke:#179AA9;stroke-width:0.25" />
<polyline points="1935 2200 1933 2198" style="stroke:#F25844;stroke-width:0.75" />
<polyline points="1943 2200 1943 2020 1945 2020 1945 2200 1943 2200" style="fill:#BFE1F3;stroke:#179AA9;stroke-width:0.25" />
<polyline points="1943.4 2200 1943 2199.6" style="stroke:#F25844;stroke-width:0.75" />
<polyline points="1945 2200 1945 2020 1946 2020 1946 2200 1945 2200" style="fill:#BFE1F3;stroke:#179AA9;stroke-width:0.25" />
<polyline points="1945.2 2200 1945 2199.8" style="stroke:#F25844;stroke-width:0.75" />
<polyline points="1946 2200 1946 2020 2026 2020 2026 2200 1946 2200" style="fill:#FAAD35;stroke:#F25844;stroke-width:0.5" />
<polyline points="2010 2200 2026 2184" style="stroke:#F25844;stroke-width:0.75" />
<text text-anchor="middle" x="1986" y="2110" class="small">IOPadInOut</text>
<text text-anchor="middle" x="1986" y="2130" class="small">UART_RX</text>
<polyline points="2026 2200 2026 2020 2106 2020 2106 2200 2026 2200" style="fill:#BFE1F3;stroke:#179AA9;stroke-width:0.25" />
<polyline points="2042 2200 2026 2184" style="stroke:#F25844;stroke-width:0.75" />
<polyline points="2106 2200 2106 2020 2186 2020 2186 2200 2106 2200" style="fill:#BFE1F3;stroke:#179AA9;stroke-width:0.25" />
<polyline points="2122 2200 2106 2184" style="stroke:#F25844;stroke-width:0.75" />
<polyline points="2186 2200 2186 2020 2196 2020 2196 2200 2186 2200" style="fill:#BFE1F3;stroke:#179AA9;stroke-width:0.25" />
<polyline points="2188 2200 2186 2198" style="stroke:#F25844;stroke-width:0.75" />
<polyline points="2196 2200 2196 2020 2198 2020 2198 2200 2196 2200" style="fill:#BFE1F3;stroke:#179AA9;stroke-width:0.25" />
<polyline points="2196.4 2200 2196 2199.6" style="stroke:#F25844;stroke-width:0.75" />
<polyline points="2198 2200 2198 2020 2200 2020 2200 2200 2198 2200" style="fill:#BFE1F3;stroke:#179AA9;stroke-width:0.25" />
<polyline points="2198.4 2200 2198 2199.6" style="stroke:#F25844;stroke-width:0.75" />
<polyline points="0 2020 180 2020 180 2200 1.25308e-05 2200 0 2020" style="fill:#BFE1F3;stroke:#179AA9;stroke-width:0.25" />
<polyline points="2.50615e-06 2056 36 2020" style="stroke:#F25844;stroke-width:0.75" />
<polyline points="0 1940 180 1940 180 2020 5.56922e-06 2020 0 1940" style="fill:#BFE1F3;stroke:#179AA9;stroke-width:0.25" />
<polyline points="1.11384e-06 1956 16 1940" style="stroke:#F25844;stroke-width:0.75" />
<polyline points="0 1920 180 1920 180 1940 1.39231e-06 1940 0 1920" style="fill:#BFE1F3;stroke:#179AA9;stroke-width:0.25" />
<polyline points="2.78461e-07 1924 4 1920" style="stroke:#F25844;stroke-width:0.75" />
<polyline points="0 1915 180 1915 180 1920 3.48077e-07 1920 0 1915" style="fill:#BFE1F3;stroke:#179AA9;stroke-width:0.25" />
<polyline points="6.96153e-08 1916 1 1915" style="stroke:#F25844;stroke-width:0.75" />
<polyline points="0 1914 180 1914 180 1915 6.96153e-08 1915 0 1914" style="fill:#BFE1F3;stroke:#179AA9;stroke-width:0.25" />
<polyline points="1.39231e-08 1914.2 0.2 1914" style="stroke:#F25844;stroke-width:0.75" />
<polyline points="0 1834 180 1834 180 1914 5.56922e-06 1914 0 1834" style="fill:#FAAD35;stroke:#F25844;stroke-width:0.5" />
<polyline points="1.11384e-06 1850 16 1834" style="stroke:#F25844;stroke-width:0.75" />
<text text-anchor="middle" x="90" y="1874" class="small">IOPadInOut</text>
<text text-anchor="middle" x="90" y="1894" class="small">DAC_0</text>
<polyline points="0 1654 180 1654 180 1834 1.25308e-05 1834 0 1654" style="fill:#BFE1F3;stroke:#179AA9;stroke-width:0.25" />
<polyline points="2.50615e-06 1690 36 1654" style="stroke:#F25844;stroke-width:0.75" />
<polyline points="0 1574 180 1574 180 1654 5.56922e-06 1654 0 1574" style="fill:#BFE1F3;stroke:#179AA9;stroke-width:0.25" />
<polyline points="1.11384e-06 1590 16 1574" style="stroke:#F25844;stroke-width:0.75" />
<polyline points="0 1554 180 1554 180 1574 1.39231e-06 1574 0 1554" style="fill:#BFE1F3;stroke:#179AA9;stroke-width:0.25" />
<polyline points="2.78461e-07 1558 4 1554" style="stroke:#F25844;stroke-width:0.75" />
<polyline points="0 1549 180 1549 180 1554 3.48077e-07 1554 0 1549" style="fill:#BFE1F3;stroke:#179AA9;stroke-width:0.25" />
<polyline points="6.96153e-08 1550 1 1549" style="stroke:#F25844;stroke-width:0.75" />
<polyline points="0 1547 180 1547 180 1549 1.39231e-07 1549 0 1547" style="fill:#BFE1F3;stroke:#179AA9;stroke-width:0.25" />
<polyline points="2.78461e-08 1547.4 0.4 1547" style="stroke:#F25844;stroke-width:0.75" />
<polyline points="0 1467 180 1467 180 1547 5.56922e-06 1547 0 1467" style="fill:#FAAD35;stroke:#F25844;stroke-width:0.5" />
<polyline points="1.11384e-06 1483 16 1467" style="stroke:#F25844;stroke-width:0.75" />
<text text-anchor="middle" x="90" y="1507" class="small">IOPadInOut</text>
<text text-anchor="middle" x="90" y="1527" class="small">DAC_1</text>
<polyline points="0 1287 180 1287 180 1467 1.25308e-05 1467 0 1287" style="fill:#BFE1F3;stroke:#179AA9;stroke-width:0.25" />
<polyline points="2.50615e-06 1323 36 1287" style="stroke:#F25844;stroke-width:0.75" />
<polyline points="0 1207 180 1207 180 1287 5.56922e-06 1287 0 1207" style="fill:#BFE1F3;stroke:#179AA9;stroke-width:0.25" />
<polyline points="1.11384e-06 1223 16 1207" style="stroke:#F25844;stroke-width:0.75" />
<polyline points="0 1187 180 1187 180 1207 1.39231e-06 1207 0 1187" style="fill:#BFE1F3;stroke:#179AA9;stroke-width:0.25" />
<polyline points="2.78461e-07 1191 4 1187" style="stroke:#F25844;stroke-width:0.75" />
<polyline points="0 1182 180 1182 180 1187 3.48077e-07 1187 0 1182" style="fill:#BFE1F3;stroke:#179AA9;stroke-width:0.25" />
<polyline points="6.96153e-08 1183 1 1182" style="stroke:#F25844;stroke-width:0.75" />
<polyline points="0 1180 180 1180 180 1182 1.39231e-07 1182 0 1180" style="fill:#BFE1F3;stroke:#179AA9;stroke-width:0.25" />
<polyline points="2.78461e-08 1180.4 0.4 1180" style="stroke:#F25844;stroke-width:0.75" />
<polyline points="0 1100 180 1100 180 1180 5.56922e-06 1180 0 1100" style="fill:#FAAD35;stroke:#F25844;stroke-width:0.5" />
<polyline points="1.11384e-06 1116 16 1100" style="stroke:#F25844;stroke-width:0.75" />
<text text-anchor="middle" x="90" y="1140" class="small">IOPadVdd</text>
<text text-anchor="middle" x="90" y="1160" class="small">VDD_2</text>
<polyline points="0 1020 180 1020 180 1100 5.56922e-06 1100 0 1020" style="fill:#FAAD35;stroke:#F25844;stroke-width:0.5" />
<polyline points="1.11384e-06 1036 16 1020" style="stroke:#F25844;stroke-width:0.75" />
<text text-anchor="middle" x="90" y="1060" class="small">IOPadVss</text>
<text text-anchor="middle" x="90" y="1080" class="small">GND_2</text>
<polyline points="0 840 180 840 180 1020 1.25308e-05 1020 0 840" style="fill:#BFE1F3;stroke:#179AA9;stroke-width:0.25" />
<polyline points="2.50615e-06 876 36 840" style="stroke:#F25844;stroke-width:0.75" />
<polyline points="0 760 180 760 180 840 5.56922e-06 840 0 760" style="fill:#BFE1F3;stroke:#179AA9;stroke-width:0.25" />
<polyline points="1.11384e-06 776 16 760" style="stroke:#F25844;stroke-width:0.75" />
<polyline points="0 740 180 740 180 760 1.39231e-06 760 0 740" style="fill:#BFE1F3;stroke:#179AA9;stroke-width:0.25" />
<polyline points="2.78461e-07 744 4 740" style="stroke:#F25844;stroke-width:0.75" />
<polyline points="0 735 180 735 180 740 3.48077e-07 740 0 735" style="fill:#BFE1F3;stroke:#179AA9;stroke-width:0.25" />
<polyline points="6.96153e-08 736 1 735" style="stroke:#F25844;stroke-width:0.75" />
<polyline points="0 734 180 734 180 735 6.96153e-08 735 0 734" style="fill:#BFE1F3;stroke:#179AA9;stroke-width:0.25" />
<polyline points="1.39231e-08 734.2 0.2 734" style="stroke:#F25844;stroke-width:0.75" />
<polyline points="0 654 180 654 180 734 5.56922e-06 734 0 654" style="fill:#FAAD35;stroke:#F25844;stroke-width:0.5" />
<polyline points="4.45538e-06 718 16 734" style="stroke:#F25844;stroke-width:0.75" />
<text text-anchor="middle" x="90" y="694" class="small">IOPadInOut</text>
<text text-anchor="middle" x="90" y="714" class="small">DAC_2</text>
<polyline points="0 474 180 474 180 654 1.25308e-05 654 0 474" style="fill:#BFE1F3;stroke:#179AA9;stroke-width:0.25" />
<polyline points="2.50615e-06 510 36 474" style="stroke:#F25844;stroke-width:0.75" />
<polyline points="0 394 180 394 180 474 5.56922e-06 474 0 394" style="fill:#BFE1F3;stroke:#179AA9;stroke-width:0.25" />
<polyline points="1.11384e-06 410 16 394" style="stroke:#F25844;stroke-width:0.75" />
<polyline points="0 374 180 374 180 394 1.39231e-06 394 0 374" style="fill:#BFE1F3;stroke:#179AA9;stroke-width:0.25" />
<polyline points="2.78461e-07 378 4 374" style="stroke:#F25844;stroke-width:0.75" />
<polyline points="0 369 180 369 180 374 3.48077e-07 374 0 369" style="fill:#BFE1F3;stroke:#179AA9;stroke-width:0.25" />
<polyline points="6.96153e-08 370 1 369" style="stroke:#F25844;stroke-width:0.75" />
<polyline points="0 367 180 367 180 369 1.39231e-07 369 0 367" style="fill:#BFE1F3;stroke:#179AA9;stroke-width:0.25" />
<polyline points="2.78461e-08 367.4 0.4 367" style="stroke:#F25844;stroke-width:0.75" />
<polyline points="0 287 180 287 180 367 5.56922e-06 367 0 287" style="fill:#FAAD35;stroke:#F25844;stroke-width:0.5" />
<polyline points="4.45538e-06 351 16 367" style="stroke:#F25844;stroke-width:0.75" />
<text text-anchor="middle" x="90" y="327" class="small">IOPadInOut</text>
<text text-anchor="middle" x="90" y="347" class="small">DAC_3</text>
<polyline points="0 107 180 107 180 287 1.25308e-05 287 0 107" style="fill:#BFE1F3;stroke:#179AA9;stroke-width:0.25" />
<polyline points="2.50615e-06 143 36 107" style="stroke:#F25844;stroke-width:0.75" />
<polyline points="0 27 180 27 180 107 5.56922e-06 107 0 27" style="fill:#BFE1F3;stroke:#179AA9;stroke-width:0.25" />
<polyline points="1.11384e-06 43 16 27" style="stroke:#F25844;stroke-width:0.75" />
<polyline points="0 7 180 6.99999 180 27 1.39231e-06 27 0 7" style="fill:#BFE1F3;stroke:#179AA9;stroke-width:0.25" />
<polyline points="2.78461e-07 11 4 7" style="stroke:#F25844;stroke-width:0.75" />
<polyline points="0 2 180 1.99999 180 6.99999 3.48077e-07 7 0 2" style="fill:#BFE1F3;stroke:#179AA9;stroke-width:0.25" />
<polyline points="6.96153e-08 3 1 2" style="stroke:#F25844;stroke-width:0.75" />
<polyline points="0 0 180 -1.25308e-05 180 1.99999 1.39231e-07 2 0 0" style="fill:#BFE1F3;stroke:#179AA9;stroke-width:0.25" />
<polyline points="2.78461e-08 0.4 0.4 -2.7846e-08" style="stroke:#F25844;stroke-width:0.75" />
<polyline points="2200 2200 2020 2200 2020 2020 2200 2020 2200 2200" style="fill:#BFE1F3;stroke:#179AA9;stroke-width:0.25" />
<polyline points="2200 2164 2164 2200" style="stroke:#F25844;stroke-width:0.75" />
<polyline points="2200 2020 2020 2020 2020 1940 2200 1940 2200 2020" style="fill:#BFE1F3;stroke:#179AA9;stroke-width:0.25" />
<polyline points="2200 2004 2184 2020" style="stroke:#F25844;stroke-width:0.75" />
<polyline points="2200 1940 2020 1940 2020 1920 2200 1920 2200 1940" style="fill:#BFE1F3;stroke:#179AA9;stroke-width:0.25" />
<polyline points="2200 1936 2196 1940" style="stroke:#F25844;stroke-width:0.75" />
<polyline points="2200 1920 2020 1920 2020 1915 2200 1915 2200 1920" style="fill:#BFE1F3;stroke:#179AA9;stroke-width:0.25" />
<polyline points="2200 1919 2199 1920" style="stroke:#F25844;stroke-width:0.75" />
<polyline points="2200 1915 2020 1915 2020 1914 2200 1914 2200 1915" style="fill:#BFE1F3;stroke:#179AA9;stroke-width:0.25" />
<polyline points="2200 1914.8 2199.8 1915" style="stroke:#F25844;stroke-width:0.75" />
<polyline points="2200 1914 2020 1914 2020 1834 2200 1834 2200 1914" style="fill:#FAAD35;stroke:#F25844;stroke-width:0.5" />
<polyline points="2200 1898 2184 1914" style="stroke:#F25844;stroke-width:0.75" />
<text text-anchor="middle" x="2110" y="1874" class="small">IOPadInOut</text>
<text text-anchor="middle" x="2110" y="1894" class="small">PWM_1</text>
<polyline points="2200 1834 2020 1834 2020 1654 2200 1654 2200 1834" style="fill:#BFE1F3;stroke:#179AA9;stroke-width:0.25" />
<polyline points="2200 1798 2164 1834" style="stroke:#F25844;stroke-width:0.75" />
<polyline points="2200 1654 2020 1654 2020 1574 2200 1574 2200 1654" style="fill:#BFE1F3;stroke:#179AA9;stroke-width:0.25" />
<polyline points="2200 1638 2184 1654" style="stroke:#F25844;stroke-width:0.75" />
<polyline points="2200 1574 2020 1574 2020 1554 2200 1554 2200 1574" style="fill:#BFE1F3;stroke:#179AA9;stroke-width:0.25" />
<polyline points="2200 1570 2196 1574" style="stroke:#F25844;stroke-width:0.75" />
<polyline points="2200 1554 2020 1554 2020 1549 2200 1549 2200 1554" style="fill:#BFE1F3;stroke:#179AA9;stroke-width:0.25" />
<polyline points="2200 1553 2199 1554" style="stroke:#F25844;stroke-width:0.75" />
<polyline points="2200 1549 2020 1549 2020 1547 2200 1547 2200 1549" style="fill:#BFE1F3;stroke:#179AA9;stroke-width:0.25" />
<polyline points="2200 1548.6 2199.6 1549" style="stroke:#F25844;stroke-width:0.75" />
<polyline points="2200 1547 2020 1547 2020 1467 2200 1467 2200 1547" style="fill:#FAAD35;stroke:#F25844;stroke-width:0.5" />
<polyline points="2200 1531 2184 1547" style="stroke:#F25844;stroke-width:0.75" />
<text text-anchor="middle" x="2110" y="1507" class="small">IOPadInOut</text>
<text text-anchor="middle" x="2110" y="1527" class="small">PWM_2</text>
<polyline points="2200 1467 2020 1467 2020 1287 2200 1287 2200 1467" style="fill:#BFE1F3;stroke:#179AA9;stroke-width:0.25" />
<polyline points="2200 1431 2164 1467" style="stroke:#F25844;stroke-width:0.75" />
<polyline points="2200 1287 2020 1287 2020 1207 2200 1207 2200 1287" style="fill:#BFE1F3;stroke:#179AA9;stroke-width:0.25" />
<polyline points="2200 1271 2184 1287" style="stroke:#F25844;stroke-width:0.75" />
<polyline points="2200 1207 2020 1207 2020 1187 2200 1187 2200 1207" style="fill:#BFE1F3;stroke:#179AA9;stroke-width:0.25" />
<polyline points="2200 1203 2196 1207" style="stroke:#F25844;stroke-width:0.75" />
<polyline points="2200 1187 2020 1187 2020 1182 2200 1182 2200 1187" style="fill:#BFE1F3;stroke:#179AA9;stroke-width:0.25" />
<polyline points="2200 1186 2199 1187" style="stroke:#F25844;stroke-width:0.75" />
<polyline points="2200 1182 2020 1182 2020 1180 2200 1180 2200 1182" style="fill:#BFE1F3;stroke:#179AA9;stroke-width:0.25" />
<polyline points="2200 1181.6 2199.6 1182" style="stroke:#F25844;stroke-width:0.75" />
<polyline points="2200 1180 2020 1180 2020 1100 2200 1100 2200 1180" style="fill:#FAAD35;stroke:#F25844;stroke-width:0.5" />
<polyline points="2200 1164 2184 1180" style="stroke:#F25844;stroke-width:0.75" />
<text text-anchor="middle" x="2110" y="1140" class="small">IOPadVdd</text>
<text text-anchor="middle" x="2110" y="1160" class="small">VDD_1</text>
<polyline points="2200 1100 2020 1100 2020 1020 2200 1020 2200 1100" style="fill:#FAAD35;stroke:#F25844;stroke-width:0.5" />
<polyline points="2200 1084 2184 1100" style="stroke:#F25844;stroke-width:0.75" />
<text text-anchor="middle" x="2110" y="1060" class="small">IOPadVss</text>
<text text-anchor="middle" x="2110" y="1080" class="small">GND_1</text>
<polyline points="2200 1020 2020 1020 2020 840 2200 840 2200 1020" style="fill:#BFE1F3;stroke:#179AA9;stroke-width:0.25" />
<polyline points="2200 984 2164 1020" style="stroke:#F25844;stroke-width:0.75" />
<polyline points="2200 840 2020 840 2020 760 2200 760 2200 840" style="fill:#BFE1F3;stroke:#179AA9;stroke-width:0.25" />
<polyline points="2200 824 2184 840" style="stroke:#F25844;stroke-width:0.75" />
<polyline points="2200 760 2020 760 2020 740 2200 740 2200 760" style="fill:#BFE1F3;stroke:#179AA9;stroke-width:0.25" />
<polyline points="2200 756 2196 760" style="stroke:#F25844;stroke-width:0.75" />
<polyline points="2200 740 2020 740 2020 735 2200 735 2200 740" style="fill:#BFE1F3;stroke:#179AA9;stroke-width:0.25" />
<polyline points="2200 739 2199 740" style="stroke:#F25844;stroke-width:0.75" />
<polyline points="2200 735 2020 735 2020 734 2200 734 2200 735" style="fill:#BFE1F3;stroke:#179AA9;stroke-width:0.25" />
<polyline points="2200 734.8 2199.8 735" style="stroke:#F25844;stroke-width:0.75" />
<polyline points="2200 734 2020 734 2020 654 2200 654 2200 734" style="fill:#FAAD35;stroke:#F25844;stroke-width:0.5" />
<polyline points="2200 670 2184 654" style="stroke:#F25844;stroke-width:0.75" />
<text text-anchor="middle" x="2110" y="694" class="small">IOPadInOut</text>
<text text-anchor="middle" x="2110" y="714" class="small">PWM_3</text>
<polyline points="2200 654 2020 654 2020 474 2200 474 2200 654" style="fill:#BFE1F3;stroke:#179AA9;stroke-width:0.25" />
<polyline points="2200 618 2164 654" style="stroke:#F25844;stroke-width:0.75" />
<polyline points="2200 474 2020 474 2020 394 2200 394 2200 474" style="fill:#BFE1F3;stroke:#179AA9;stroke-width:0.25" />
<polyline points="2200 458 2184 474" style="stroke:#F25844;stroke-width:0.75" />
<polyline points="2200 394 2020 394 2020 374 2200 374 2200 394" style="fill:#BFE1F3;stroke:#179AA9;stroke-width:0.25" />
<polyline points="2200 390 2196 394" style="stroke:#F25844;stroke-width:0.75" />
<polyline points="2200 374 2020 374 2020 369 2200 369 2200 374" style="fill:#BFE1F3;stroke:#179AA9;stroke-width:0.25" />
<polyline points="2200 373 2199 374" style="stroke:#F25844;stroke-width:0.75" />
<polyline points="2200 369 2020 369 2020 367 2200 367 2200 369" style="fill:#BFE1F3;stroke:#179AA9;stroke-width:0.25" />
<polyline points="2200 368.6 2199.6 369" style="stroke:#F25844;stroke-width:0.75" />
<polyline points="2200 367 2020 367 2020 287 2200 287 2200 367" style="fill:#FAAD35;stroke:#F25844;stroke-width:0.5" />
<polyline points="2200 303 2184 287" style="stroke:#F25844;stroke-width:0.75" />
<text text-anchor="middle" x="2110" y="327" class="small">IOPadInOut</text>
<text text-anchor="middle" x="2110" y="347" class="small">PWM_4</text>
<polyline points="2200 287 2020 287 2020 107 2200 107 2200 287" style="fill:#BFE1F3;stroke:#179AA9;stroke-width:0.25" />
<polyline points="2200 251 2164 287" style="stroke:#F25844;stroke-width:0.75" />
<polyline points="2200 107 2020 107 2020 27 2200 27 2200 107" style="fill:#BFE1F3;stroke:#179AA9;stroke-width:0.25" />
<polyline points="2200 91 2184 107" style="stroke:#F25844;stroke-width:0.75" />
<polyline points="2200 27 2020 27 2020 7 2200 7 2200 27" style="fill:#BFE1F3;stroke:#179AA9;stroke-width:0.25" />
<polyline points="2200 23 2196 27" style="stroke:#F25844;stroke-width:0.75" />
<polyline points="2200 7 2020 7 2020 2 2200 2 2200 7" style="fill:#BFE1F3;stroke:#179AA9;stroke-width:0.25" />
<polyline points="2200 6 2199 7" style="stroke:#F25844;stroke-width:0.75" />
<polyline points="2200 2 2020 2 2020 4.17692e-06 2200 0 2200 2" style="fill:#BFE1F3;stroke:#179AA9;stroke-width:0.25" />
<polyline points="2200 1.6 2199.6 2" style="stroke:#F25844;stroke-width:0.75" />
</svg>
